# xmcd
#
# Track frame offsets:
#  182
#  14527
#  28865
#  40550
#  53872
#  76100
#  92187
#  108640
#  125707
#  139302
#  150465
#
# Disc length: 2201 seconds
#
# Revision: 0
# Processed by: cddbd v1.4PL0 Copyright (c) Steve Scherf et al.
# Submitted via: AltoMP3_Maker 3.0
#
DISCID=8d08970b
DTITLE=Stephanie Ann - A Little Fiddle Action
DYEAR=1900
DGENRE=
TTITLE0=I Can't Explain It
TTITLE1=Lead Foot Loretta
TTITLE2=You're in the Doghouse Now
TTITLE3=I Wish I Had a Cowboy
TTITLE4=Old Forty
TTITLE5=The Way It Used to Be
TTITLE6=When Love Is All You Got
TTITLE7=More than Words Can Say
TTITLE8=Orange Blossom Special
TTITLE9=A Little Fiddle Action
TTITLE10=Amazing Grace
EXTD=
EXTT0=
EXTT1=
EXTT2=
EXTT3=
EXTT4=
EXTT5=
EXTT6=
EXTT7=
EXTT8=
EXTT9=
EXTT10=
PLAYORDER=
